<?xml version="1.0" encoding="UTF-8"?>
<svg id="_Ñëîé_1" data-name="Ñëîé 1" xmlns="http://www.w3.org/2000/svg" viewBox="0 0 1136.33 284.11">
  <defs>
    <style>
      .cls-1 {
        fill: #410072;
        stroke-width: 0px;
      }
    </style>
  </defs>
  <path class="cls-1" d="m348.09,13.04c.84-2.24,3.72-1.75,5.55-1.98C425.64,2.01,498.84-2.52,574,1.44c77.52,4.09,154.15,14.9,230,30.46,64.67,13.26,127.85,29.66,188.37,51.53,33.49,12.1,65.63,25.68,94.23,43,14.19,8.59,26.99,18,36.62,29.06,19.29,22.15,17.27,43.44-5.77,61.01-13.8,10.53-31.19,18-50.01,24.16-40.57,13.29-84.63,20.78-129.65,26.54-78.85,10.09-159.49,14.28-240.82,16.05-87.21,1.9-174.82.65-262.79-3.92-72.75-3.78-145.44-9.56-217.74-20.55-49.94-7.59-99.28-17.02-145.55-34.13-16.4-6.06-31.72-13.2-44.88-22.39C-1.56,183.03-7.49,160.77,9.54,139.31c12.21-15.38,30.94-26.7,51.91-36.46,44.04-20.5,94.11-33.37,146.49-43.13,80.67-15.03,164.33-21.36,250.11-21.34,43.27,0,86.64,1.76,130.14,4.65,44.47,2.95,88.73,7.9,132.94,13.67,10.46,1.37,20.87,3.27,31.39,4.48,1.76.2,3.77.14,4.42,1.91-2.99,1.21-6.6.39-10.02,0-20.82-2.35-41.61-5.18-62.45-7.13-154.69-14.51-306.73-15.49-453.37,10.13-52.23,9.13-102.24,21.41-147.09,40.56-20.07,8.57-38.48,18.41-52.25,31.58-5.9,5.64-10.54,11.76-12.62,18.73-4,13.38,2.98,25.13,17.53,35.57,18.22,13.07,40.84,21.39,64.44,28.49,41.53,12.49,84.66,20.2,128.22,26.28,97.59,13.62,195.38,19.45,293.17,22.13,102.37,2.81,204.08,1.85,304.71-4.77,62-4.07,123.23-10.12,181.82-22.34,28.25-5.89,55.46-13.15,78.89-24.95,7.01-3.53,13.34-7.52,18.64-12.2,14.07-12.42,15.4-26.22,3.65-41.37-8.29-10.68-20.15-19.59-33.4-27.71-32.91-20.16-70.61-35.08-109.72-48.33-61.44-20.81-125.21-36.41-190.33-49.01-62.54-12.1-125.63-20.73-189.25-25.88-52.4-4.24-104.33-4.25-156-2.19-27.32,1.09-54.52,2.7-82.06,2.82-.34,0-.72-.25-1.36-.49Z"/>
</svg>